<?xml version="1.0" encoding="utf-8"?>
<!-- Generator: Adobe Illustrator 21.0.2, SVG Export Plug-In . SVG Version: 6.00 Build 0)  -->
<svg version="1.1" id="Camada_1" xmlns="http://www.w3.org/2000/svg" xmlns:xlink="http://www.w3.org/1999/xlink" x="0px" y="0px"
	 viewBox="0 0 553 111.3" style="enable-background:new 0 0 553 111.3;" xml:space="preserve">
<style type="text/css">
	.st0{fill:#E8E9EA;}
	.st1{fill:#80D803;}
</style>
<g>
	<g>
		<path class="st0" d="M128.6,33.8c-1,0-1.9,0.1-2.9,0.2c-0.9,0.2-1.7,0.5-2.5,0.9c-0.7,0.4-1.3,0.9-1.7,1.4c-0.5,0.5-0.6,1.2-0.6,2
			c0,1.2,0.3,2.2,0.9,2.8c0.6,0.7,1.5,1.2,2.7,1.8c1.2,0.5,2.7,1,4.6,1.5c1.8,0.5,3.9,1.2,6.3,2c3.1,1.1,6,2.3,8.5,3.9
			c2.6,1.5,4.8,3.3,6.6,5.3c1.8,2,3.3,4.3,4.3,6.9s1.5,5.4,1.5,8.5c0,3.9-0.9,7.5-2.5,10.7c-1.6,3.3-3.9,6-6.6,8.4
			c-2.8,2.3-6,4.1-9.5,5.4c-3.6,1.3-7.4,1.9-11.2,1.9c-3.3,0-6.4-0.5-9.4-1.5s-5.7-2.3-8.2-4.1c-2.5-1.8-4.6-3.8-6.6-6.3
			c-1.9-2.4-3.3-5-4.4-7.9l5.9-3.4c0.9-0.5,1.9-0.9,3-1.2s2.2-0.5,3.3-0.5c1.6,0,3.1,0.3,4.3,1c1.3,0.7,2.6,1.4,3.8,2.2
			c1.2,0.8,2.5,1.5,3.8,2.2c1.3,0.7,2.8,1,4.5,1c1.2,0,2.3-0.2,3.7-0.5c1.3-0.4,2.6-0.9,3.7-1.5s2.1-1.5,2.9-2.5
			c0.8-1,1.2-2.2,1.2-3.5c0-1.2-0.3-2.2-1-3c-0.7-0.8-1.6-1.5-2.8-2.1c-1.2-0.6-2.6-1.1-4.1-1.6c-1.5-0.5-3.2-1.1-4.8-1.8
			c-2.8-1.1-5.5-2.2-8.2-3.4c-2.7-1.2-5.1-2.8-7.3-4.6s-3.9-4-5.2-6.7c-1.3-2.6-2-5.8-2-9.7c0-3.6,0.8-6.9,2.2-9.7
			c1.5-2.9,3.4-5.2,5.9-7.2c2.4-1.9,5.2-3.4,8.4-4.5c3.1-1,6.3-1.5,9.7-1.5c2.4,0,4.7,0.4,7,1.2c2.2,0.8,4.4,1.9,6.4,3.2
			c2,1.3,3.9,2.8,5.7,4.4c1.8,1.6,3.3,3.3,4.8,5l-5.7,4.8c-1.2,1-2.3,1.7-3.5,2.1c-1.2,0.4-2.6,0.6-4.1,0.6c-1.2,0-2.2-0.2-3.2-0.5
			s-1.8-0.6-2.6-1c-0.8-0.4-1.5-0.7-2.4-1C130.4,33.9,129.5,33.8,128.6,33.8z"/>
		<path class="st0" d="M190.9,96.6h-14.5V16h35.7c3.4,0,6.7,0.6,9.7,1.9c3,1.2,5.7,3,7.9,5.3c2.2,2.2,4,4.8,5.3,7.8
			c1.3,3,1.9,6.2,1.9,9.5c0,1-0.2,2.2-0.5,3.6c-0.4,1.4-0.9,2.8-1.5,4.1s-1.4,2.5-2.3,3.6c-0.9,1-1.9,1.6-3.1,1.9
			c1.5,0.2,3,0.9,4.3,2.1c1.3,1.2,2.5,2.6,3.5,4.4c1,1.8,1.8,3.6,2.3,5.7c0.5,2,0.9,3.9,0.9,5.8c0,3.5-0.7,6.7-2,9.8
			c-1.3,3-3.2,5.7-5.4,7.9c-2.3,2.2-5,4-8.1,5.3c-3.1,1.3-6.3,1.9-9.8,1.9H190.9z M194.8,34.3v12.2h18c0.8,0,1.5-0.2,2.2-0.5
			c0.7-0.3,1.3-0.8,1.9-1.3c0.5-0.5,0.9-1.2,1.2-1.9c0.3-0.7,0.5-1.5,0.5-2.3c0-0.9-0.2-1.6-0.5-2.4c-0.3-0.8-0.7-1.4-1.2-1.9
			s-1.2-1-1.9-1.3c-0.7-0.3-1.5-0.5-2.2-0.5C212.8,34.3,194.8,34.3,194.8,34.3z M215.8,78.1c0.9,0,1.7-0.2,2.4-0.5
			c0.8-0.4,1.4-0.9,1.9-1.5c0.5-0.6,1-1.3,1.3-2.2c0.3-0.8,0.5-1.6,0.5-2.6s-0.2-1.8-0.5-2.6c-0.3-0.8-0.8-1.5-1.3-2.1
			s-1.2-1.1-1.9-1.4c-0.8-0.4-1.5-0.5-2.4-0.5h-21V78L215.8,78.1L215.8,78.1z"/>
		<path class="st0" d="M4.3,56.3c0-3.8,0.5-7.4,1.5-10.9c1-3.5,2.4-6.8,4.2-9.8c1.8-3,3.9-5.8,6.5-8.3c2.5-2.5,5.3-4.6,8.4-6.4
			c3.1-1.8,6.3-3.2,9.9-4.1c3.6-1,7.2-1.5,11-1.5c3.8,0,7.4,0.5,11,1.5s6.8,2.3,9.9,4.1c3.1,1.8,5.9,3.9,8.4,6.4
			c2.5,2.5,4.6,5.3,6.5,8.3c1.8,3,3.2,6.3,4.2,9.8c1,3.5,1.5,7.1,1.5,10.9c0,3.8-0.5,7.4-1.5,10.9c-1,3.5-2.4,6.8-4.2,9.8
			c-1.8,3-3.9,5.8-6.5,8.3c-2.6,2.5-5.3,4.6-8.4,6.4c-3.1,1.8-6.3,3.2-9.9,4.1c-3.6,1-7.2,1.5-11,1.5c-3.8,0-7.5-0.5-11-1.5
			s-6.8-2.3-9.9-4.1c-3.1-1.8-5.9-3.9-8.4-6.4C14,82.8,11.8,80,10,77c-1.8-3-3.2-6.3-4.2-9.8C4.9,63.7,4.3,60,4.3,56.3z M22.7,56.3
			c0,3.1,0.6,6,1.9,8.8c1.2,2.8,2.9,5.2,5,7.2c2.1,2.1,4.6,3.7,7.3,4.9c2.8,1.2,5.7,1.8,8.8,1.8s6-0.6,8.8-1.8
			c2.8-1.2,5.3-2.8,7.4-4.9c2.1-2.1,3.8-4.5,5-7.2c1.2-2.8,1.9-5.7,1.9-8.8c0-3.1-0.6-6-1.9-8.8s-2.9-5.2-5-7.2s-4.6-3.6-7.4-4.9
			c-2.8-1.2-5.7-1.8-8.8-1.8s-6,0.6-8.8,1.8c-2.8,1.2-5.2,2.8-7.3,4.9c-2.1,2-3.8,4.4-5,7.2C23.4,50.2,22.7,53.2,22.7,56.3z"/>
		<path class="st0" d="M407.5,96.6h-18.4V16h31.6c3,0,5.8,0.4,8.4,1.2c2.6,0.8,4.9,1.9,7,3.2c2.1,1.3,3.9,2.9,5.5,4.7
			c1.6,1.9,2.9,3.8,4,5.9s1.9,4.3,2.4,6.4c0.5,2.2,0.9,4.4,0.9,6.6c0,2.2-0.2,4.3-0.7,6.3s-1.2,4.2-2.2,6.2c-1,2-2.3,3.9-3.9,5.8
			c-1.6,1.9-3.6,3.6-5.9,5.2l21.5,29h-15.3h-0.4c-0.3,0-0.9-0.1-1.7-0.2s-1.7-0.4-2.7-0.8c-1-0.4-2.1-1-3.2-1.9
			c-1.2-0.9-2.2-1.9-3.2-3.4L417.7,72h-10.1L407.5,96.6L407.5,96.6z M421.7,53.5c1.2,0,2.2-0.3,3.3-0.9c1.1-0.5,2-1.3,2.8-2.2
			c0.8-0.9,1.5-1.9,1.9-3.1c0.5-1.2,0.7-2.3,0.7-3.5c0-1.2-0.2-2.3-0.7-3.5c-0.5-1.2-1.2-2.2-1.9-3.1c-0.8-0.9-1.7-1.6-2.8-2.2
			c-1.1-0.5-2.2-0.9-3.3-0.9h-14.2v19.1L421.7,53.5L421.7,53.5z"/>
		<path class="st0" d="M548,96.6h-18.3l-38.6-55.7v55.7h-18.3V16h18.1c1.8,0,3.4,0.2,4.8,0.8c1.4,0.5,2.5,1.3,3.2,2.4l28.2,41.3
			c0.4,0.6,0.8,1.2,1.1,1.9c0.3,0.7,0.5,1.4,0.8,2c0.2,0.6,0.4,1.2,0.5,1.6c0.1,0.5,0.2,0.7,0.2,0.9V16H548L548,96.6L548,96.6z"/>
		<g>
			<path class="st0" d="M343.7,56.4c0,4-0.8,7.8-2.4,11.4c-1.6,3.6-3.8,6.7-6.5,9.3c-2.7,2.7-5.9,4.8-9.5,6.3
				c-3.6,1.5-7.4,2.3-11.4,2.3s-7.8-0.8-11.4-2.3s-6.7-3.6-9.4-6.3c-2.7-2.7-4.9-5.8-6.5-9.3c-1.6-3.5-2.4-7.4-2.4-11.4
				s0.8-7.8,2.4-11.4c1.6-3.6,3.8-6.7,6.5-9.3c2.7-2.6,5.9-4.7,9.4-6.3c3.6-1.5,7.4-2.3,11.4-2.3c0.7,0,1-23.8,0-23.8
				c-4.9,0-9.6,0.6-14.2,1.9c-4.6,1.3-8.8,3-12.8,5.3s-7.6,5.1-10.8,8.3c-3.2,3.2-6,6.8-8.4,10.7c-2.3,3.9-4.1,8.2-5.4,12.7
				c-1.3,4.5-1.9,9.2-1.9,14.1s0.6,9.6,1.9,14.1c1.3,4.5,3.1,8.8,5.4,12.7c2.3,3.9,5.1,7.5,8.4,10.7c3.2,3.2,6.9,6,10.8,8.3
				c4,2.3,8.2,4.1,12.8,5.3c4.5,1.3,9.3,1.9,14.2,1.9s9.6-0.6,14.2-1.9s8.8-3,12.8-5.3s7.6-5.1,10.8-8.3c3.2-3.2,6-6.8,8.4-10.7
				c2.3-3.9,4.1-8.1,5.4-12.7c1.3-4.5,1.9-9.2,1.9-14.1C367.5,55.7,343.7,55.7,343.7,56.4z"/>
			<circle class="st1" cx="314" cy="56.4" r="17"/>
		</g>
	</g>
</g>
</svg>
